<svg xmlns="http://www.w3.org/2000/svg" width="20" height="24" viewBox="0 0 20 24">
    <path id="Icon_awesome-bell" data-name="Icon awesome-bell" d="M10,24a2.931,2.931,0,0,0,2.856-3H7.144A2.931,2.931,0,0,0,10,24Zm9.616-7.018c-.862-.973-2.476-2.437-2.476-7.232a7.318,7.318,0,0,0-5.712-7.273V1.5a1.429,1.429,0,1,0-2.855,0v.977A7.318,7.318,0,0,0,2.861,9.75c0,4.8-1.614,6.259-2.476,7.232A1.506,1.506,0,0,0,0,18a1.468,1.468,0,0,0,1.433,1.5H18.567A1.467,1.467,0,0,0,20,18,1.5,1.5,0,0,0,19.616,16.982Z" fill="#4B5D67" />
</svg>