<svg xmlns="http://www.w3.org/2000/svg">
    <path id="Icon_awesome-user-circle" data-name="Icon awesome-user-circle" d="M20,.563a20,20,0,1,0,20,20A20,20,0,0,0,20,.563ZM20,8.3a7.1,7.1,0,1,1-7.1,7.1A7.1,7.1,0,0,1,20,8.3Zm0,27.742a15.454,15.454,0,0,1-11.815-5.5,8.991,8.991,0,0,1,7.944-4.823,1.973,1.973,0,0,1,.573.089,10.678,10.678,0,0,0,3.3.556,10.637,10.637,0,0,0,3.3-.556,1.973,1.973,0,0,1,.573-.089,8.991,8.991,0,0,1,7.944,4.823A15.454,15.454,0,0,1,20,36.046Z" transform="translate(0 -0.563)" fill="#4B5D67" />
</svg>