<svg xmlns="http://www.w3.org/2000/svg" width="28" height="12.444" viewBox="0 0 28 12.444">
  <path id="Icon_awesome-ruler-horizontal" data-name="Icon awesome-ruler-horizontal" d="M26.444,9H24.111v4.278a.389.389,0,0,1-.389.389h-.778a.389.389,0,0,1-.389-.389V9H19.444v4.278a.389.389,0,0,1-.389.389h-.778a.389.389,0,0,1-.389-.389V9H14.778v4.278a.389.389,0,0,1-.389.389h-.778a.389.389,0,0,1-.389-.389V9H10.111v4.278a.389.389,0,0,1-.389.389H8.944a.389.389,0,0,1-.389-.389V9H5.444v4.278a.389.389,0,0,1-.389.389H4.278a.389.389,0,0,1-.389-.389V9H1.556A1.556,1.556,0,0,0,0,10.556v9.333a1.556,1.556,0,0,0,1.556,1.556H26.444A1.556,1.556,0,0,0,28,19.889V10.556A1.556,1.556,0,0,0,26.444,9Z" transform="translate(0 -9)" fill="#4B5D67"/>
</svg>
