<svg xmlns="http://www.w3.org/2000/svg" width="27" height="27" viewBox="0 0 27 27">
  <path id="Icon_material-select-all" data-name="Icon material-select-all" d="M4.5,7.5h3v-3A3.009,3.009,0,0,0,4.5,7.5Zm0,12h3v-3h-3Zm6,12h3v-3h-3Zm-6-18h3v-3h-3Zm15-9h-3v3h3Zm9,0v3h3A3.009,3.009,0,0,0,28.5,4.5Zm-21,27v-3h-3A3.009,3.009,0,0,0,7.5,31.5Zm-3-6h3v-3h-3Zm9-21h-3v3h3Zm3,27h3v-3h-3Zm12-12h3v-3h-3Zm0,12a3.009,3.009,0,0,0,3-3h-3Zm0-18h3v-3h-3Zm0,12h3v-3h-3Zm-6,6h3v-3h-3Zm0-24h3v-3h-3Zm-12,18h15v-15h-15Zm3-12h9v9h-9Z" transform="translate(-4.5 -4.5)" fill="#4B5D67"/>
</svg>
