<svg xmlns="http://www.w3.org/2000/svg" width="27" height="27" viewBox="0 0 27 27">
  <path id="Icon_awesome-print" data-name="Icon awesome-print" d="M23.625,10.125V4.074a1.688,1.688,0,0,0-.494-1.193L20.744.494A1.688,1.688,0,0,0,19.551,0H5.063A1.688,1.688,0,0,0,3.375,1.688v8.438A3.375,3.375,0,0,0,0,13.5v5.906a.844.844,0,0,0,.844.844H3.375v5.063A1.688,1.688,0,0,0,5.063,27H21.938a1.688,1.688,0,0,0,1.688-1.687V20.25h2.531A.844.844,0,0,0,27,19.406V13.5A3.375,3.375,0,0,0,23.625,10.125Zm-3.375,13.5H6.75V18.563h13.5Zm0-11.812H6.75V3.375H16.875V5.906a.844.844,0,0,0,.844.844H20.25Zm2.531,3.8a1.266,1.266,0,1,1,1.266-1.266A1.266,1.266,0,0,1,22.781,15.609Z" fill="#4B5D67"/>
</svg>
