<svg xmlns="http://www.w3.org/2000/svg" width="27" height="22.5" viewBox="0 0 27 22.5">
  <path id="Icon_awesome-list" data-name="Icon awesome-list" d="M4.219,20.683H.844A.855.855,0,0,0,0,21.548V25.01a.855.855,0,0,0,.844.865H4.219a.855.855,0,0,0,.844-.865V21.548A.855.855,0,0,0,4.219,20.683Zm0-17.308H.844A.855.855,0,0,0,0,4.24V7.7a.855.855,0,0,0,.844.865H4.219A.855.855,0,0,0,5.063,7.7V4.24A.855.855,0,0,0,4.219,3.375Zm0,8.654H.844A.855.855,0,0,0,0,12.894v3.462a.855.855,0,0,0,.844.865H4.219a.855.855,0,0,0,.844-.865V12.894A.855.855,0,0,0,4.219,12.029Zm21.938,9.519H9.281a.855.855,0,0,0-.844.865v1.731a.855.855,0,0,0,.844.865H26.156A.855.855,0,0,0,27,24.144V22.413A.855.855,0,0,0,26.156,21.548Zm0-17.308H9.281a.855.855,0,0,0-.844.865V6.837a.855.855,0,0,0,.844.865H26.156A.855.855,0,0,0,27,6.837V5.106A.855.855,0,0,0,26.156,4.24Zm0,8.654H9.281a.855.855,0,0,0-.844.865V15.49a.855.855,0,0,0,.844.865H26.156A.855.855,0,0,0,27,15.49V13.76A.855.855,0,0,0,26.156,12.894Z" transform="translate(0 -3.375)" fill="#4B5D67"/>
</svg>
