<svg xmlns="http://www.w3.org/2000/svg" width="19" height="27" viewBox="0 0 19 27">
  <path id="Icon_awesome-lightbulb" data-name="Icon awesome-lightbulb" d="M5.185,23.959a1.661,1.661,0,0,0,.289.933L6.4,26.247A1.738,1.738,0,0,0,7.835,27h3.331a1.738,1.738,0,0,0,1.438-.753l.922-1.355a1.659,1.659,0,0,0,.289-.933l0-2.022H5.182l0,2.022ZM0,9.281a9.108,9.108,0,0,0,2.351,6.105,15.073,15.073,0,0,1,2.818,4.822c0,.014,0,.027.006.041h8.649c0-.014,0-.027.006-.041a15.073,15.073,0,0,1,2.818-4.822A9.108,9.108,0,0,0,19,9.281,9.393,9.393,0,0,0,9.47,0,9.351,9.351,0,0,0,0,9.281ZM9.5,5.062A4.274,4.274,0,0,0,5.182,9.281a.864.864,0,0,1-1.727,0A5.984,5.984,0,0,1,9.5,3.375a.844.844,0,1,1,0,1.687Z" transform="translate(0 0)" fill="#4B5D67"/>
</svg>
