<svg xmlns="http://www.w3.org/2000/svg" width="27" height="18" viewBox="0 0 27 18">
  <path id="Icon_awesome-eye" data-name="Icon awesome-eye" d="M26.837,12.816A15.035,15.035,0,0,0,13.5,4.5,15.037,15.037,0,0,0,.163,12.816a1.516,1.516,0,0,0,0,1.368A15.035,15.035,0,0,0,13.5,22.5a15.037,15.037,0,0,0,13.337-8.316A1.516,1.516,0,0,0,26.837,12.816ZM13.5,20.25a6.75,6.75,0,1,1,6.75-6.75A6.75,6.75,0,0,1,13.5,20.25ZM13.5,9a4.468,4.468,0,0,0-1.186.178,2.243,2.243,0,0,1-3.136,3.136A4.49,4.49,0,1,0,13.5,9Z" transform="translate(0 -4.5)" fill="#4B5D67"/>
</svg>
