<svg xmlns="http://www.w3.org/2000/svg" width="30" height="30" viewBox="0 0 30 30">
  <path id="Icon_awesome-calendar-alt" data-name="Icon awesome-calendar-alt" d="M0,27.188A3.034,3.034,0,0,0,3.214,30H26.786A3.034,3.034,0,0,0,30,27.188V11.25H0ZM21.429,15.7a.761.761,0,0,1,.8-.7h2.679a.761.761,0,0,1,.8.7v2.344a.761.761,0,0,1-.8.7H22.232a.761.761,0,0,1-.8-.7Zm0,7.5a.761.761,0,0,1,.8-.7h2.679a.761.761,0,0,1,.8.7v2.344a.761.761,0,0,1-.8.7H22.232a.761.761,0,0,1-.8-.7Zm-8.571-7.5a.761.761,0,0,1,.8-.7h2.679a.761.761,0,0,1,.8.7v2.344a.761.761,0,0,1-.8.7H13.661a.761.761,0,0,1-.8-.7Zm0,7.5a.761.761,0,0,1,.8-.7h2.679a.761.761,0,0,1,.8.7v2.344a.761.761,0,0,1-.8.7H13.661a.761.761,0,0,1-.8-.7ZM4.286,15.7a.761.761,0,0,1,.8-.7H7.768a.761.761,0,0,1,.8.7v2.344a.761.761,0,0,1-.8.7H5.089a.761.761,0,0,1-.8-.7Zm0,7.5a.761.761,0,0,1,.8-.7H7.768a.761.761,0,0,1,.8.7v2.344a.761.761,0,0,1-.8.7H5.089a.761.761,0,0,1-.8-.7ZM26.786,3.75H23.571V.938A1.014,1.014,0,0,0,22.5,0H20.357a1.014,1.014,0,0,0-1.071.938V3.75H10.714V.938A1.014,1.014,0,0,0,9.643,0H7.5A1.014,1.014,0,0,0,6.429.938V3.75H3.214A3.034,3.034,0,0,0,0,6.563V9.375H30V6.563A3.034,3.034,0,0,0,26.786,3.75Z" fill="#4B5D67"/>
</svg>
