<svg xmlns="http://www.w3.org/2000/svg" width="30" height="30" viewBox="0 0 30 30">
  <path id="Icon_awesome-layer-group" data-name="Icon awesome-layer-group" d="M.727,8.673l13.649,6.192a1.5,1.5,0,0,0,1.247,0L29.272,8.673a1.309,1.309,0,0,0,0-2.345L15.624.135a1.5,1.5,0,0,0-1.247,0L.727,6.327a1.31,1.31,0,0,0,0,2.346Zm28.545,5.173-3.4-1.543L16.4,16.6a3.377,3.377,0,0,1-2.8,0L4.131,12.3l-3.4,1.543a1.308,1.308,0,0,0,0,2.344l13.649,6.187a1.5,1.5,0,0,0,1.247,0l13.649-6.187a1.308,1.308,0,0,0,0-2.344Zm0,7.488L25.882,19.8,16.4,24.1a3.377,3.377,0,0,1-2.8,0L4.118,19.8.727,21.334a1.308,1.308,0,0,0,0,2.344l13.649,6.187a1.5,1.5,0,0,0,1.247,0l13.649-6.187a1.308,1.308,0,0,0,0-2.344Z" transform="translate(0 0.001)" fill="#4B5D67"/>
</svg>
