<svg xmlns="http://www.w3.org/2000/svg" width="25" height="25" viewBox="0 0 25 25">
  <path id="Icon_awesome-ruler-combined" data-name="Icon awesome-ruler-combined" d="M7.813,14.063H5.078a.391.391,0,0,1-.391-.391v-.781a.391.391,0,0,1,.391-.391H7.813V9.375H5.078a.391.391,0,0,1-.391-.391V8.2a.391.391,0,0,1,.391-.391H7.813V4.688H5.078A.391.391,0,0,1,4.688,4.3V3.516a.391.391,0,0,1,.391-.391H7.813V1.563A1.563,1.563,0,0,0,6.25,0H1.563A1.563,1.563,0,0,0,0,1.563V23.438a1.5,1.5,0,0,0,.077.381l7.736-7.735Zm15.625,3.125H21.875v2.734a.391.391,0,0,1-.391.391H20.7a.391.391,0,0,1-.391-.391V17.188H17.188v2.734a.391.391,0,0,1-.391.391h-.781a.391.391,0,0,1-.391-.391V17.188H12.5v2.734a.391.391,0,0,1-.391.391h-.781a.391.391,0,0,1-.391-.391V17.188H8.917L1.182,24.923A1.507,1.507,0,0,0,1.563,25H23.438A1.563,1.563,0,0,0,25,23.438V18.75A1.563,1.563,0,0,0,23.438,17.188Z" fill="#4B5D67"/>
</svg>
