<svg xmlns="http://www.w3.org/2000/svg" width="30" height="30" viewBox="0 0 30 30">
  <path id="Icon_awesome-gavel" data-name="Icon awesome-gavel" d="M29.588,11.681l-1.326-1.326a1.406,1.406,0,0,0-1.989,0l-.331.331L19.313,4.058l.331-.331a1.406,1.406,0,0,0,0-1.989L18.319.412a1.406,1.406,0,0,0-1.989,0L9.038,7.7a1.406,1.406,0,0,0,0,1.989l1.326,1.326a1.406,1.406,0,0,0,1.989,0l.331-.331L15,13.007l-4.748,4.748-.331-.331a1.875,1.875,0,0,0-2.652,0L.549,24.147a1.875,1.875,0,0,0,0,2.652L3.2,29.451a1.875,1.875,0,0,0,2.652,0l6.723-6.723a1.875,1.875,0,0,0,0-2.652l-.331-.331L16.993,15l2.32,2.32-.331.331a1.406,1.406,0,0,0,0,1.989l1.326,1.326a1.406,1.406,0,0,0,1.989,0l7.292-7.292a1.406,1.406,0,0,0,0-1.989Z" transform="translate(0 0)" fill="#4B5D67"/>
</svg>
