<svg xmlns="http://www.w3.org/2000/svg" width="30" height="30" viewBox="0 0 30 30">
  <path id="Path_4" data-name="Path 4" d="M34.186,10.15H6.194a1.072,1.072,0,0,0-1,1.129V29.82a1.072,1.072,0,0,0,1,1.129H34.186a1.072,1.072,0,0,0,1-1.129V11.279A1.072,1.072,0,0,0,34.186,10.15Zm.141,18.7a1.072,1.072,0,0,1-1,1.129H7.058a1.072,1.072,0,0,1-1-1.129V12.25a1.072,1.072,0,0,1,1-1.129H33.322a1.072,1.072,0,0,1,1,1.129Zm-1-16.975H7.058a.357.357,0,0,0-.335.376v16.6a.357.357,0,0,0,.335.376H33.322a.357.357,0,0,0,.335-.376V12.25a.357.357,0,0,0-.335-.376ZM8.062,21.321a.337.337,0,1,1-.669,0v-.79a.337.337,0,1,1,.669,0Zm0-2.258a.337.337,0,1,1-.669,0V13.756a.337.337,0,1,1,.669,0ZM31.93,39.516c0,.023-.087.188-.582.418a1.705,1.705,0,0,1-1.141.1,46.147,46.147,0,0,0-9.825-.892,44.411,44.411,0,0,0-10.042.949,1.723,1.723,0,0,1-1.095-.06c-.723-.29-.793-.508-.8-.508.107-.5,2.983-1.506,9.426-1.739q.335,0,.669-.023c1.178-.03,2.424-.026,3.6,0h.425c6.39.252,9.242,1.261,9.363,1.758ZM19.49,36.99H18.238l.522-5.311h2.852l.529,5.307H19.49Z" transform="translate(-5.19 -10.15)" fill="#4B5D67"/>
</svg>
